<?xml version="1.0" encoding="UTF-8" standalone="no"?>
<!-- Created with Inkscape (http://www.inkscape.org/) -->

<svg
   xmlns:dc="http://purl.org/dc/elements/1.1/"
   xmlns:cc="http://creativecommons.org/ns#"
   xmlns:rdf="http://www.w3.org/1999/02/22-rdf-syntax-ns#"
   xmlns:svg="http://www.w3.org/2000/svg"
   xmlns="http://www.w3.org/2000/svg"
   xmlns:sodipodi="http://sodipodi.sourceforge.net/DTD/sodipodi-0.dtd"
   xmlns:inkscape="http://www.inkscape.org/namespaces/inkscape"
   width="200.36375"
   height="69.090874"
   id="svg3313"
   version="1.1"
   inkscape:version="0.48.3.1 r9886">
  <defs
     id="defs3315" />
  <sodipodi:namedview
     id="base"
     pagecolor="#ffffff"
     bordercolor="#666666"
     borderopacity="1.0"
     inkscape:pageopacity="0.0"
     inkscape:pageshadow="2"
     inkscape:zoom="1.979899"
     inkscape:cx="115.9421"
     inkscape:cy="45.826886"
     inkscape:document-units="px"
     inkscape:current-layer="layer1"
     showgrid="false"
     fit-margin-top="0"
     fit-margin-left="0"
     fit-margin-right="0"
     fit-margin-bottom="0"
     inkscape:window-width="838"
     inkscape:window-height="1032"
     inkscape:window-x="0"
     inkscape:window-y="16"
     inkscape:window-maximized="0" />
  <metadata
     id="metadata3318">
    <rdf:RDF>
      <cc:Work
         rdf:about="">
        <dc:format>image/svg+xml</dc:format>
        <dc:type
           rdf:resource="http://purl.org/dc/dcmitype/StillImage" />
        <dc:title></dc:title>
      </cc:Work>
    </rdf:RDF>
  </metadata>
  <g
     inkscape:label="Layer 1"
     inkscape:groupmode="layer"
     id="layer1"
     transform="translate(-285.53241,-469.24532)">
    <g
       id="g3392">
      <path
         d="m 418.53616,521.53782 c -0.0613,0 -0.14125,0.0512 -0.1575,0.1455 -0.3625,1.47225 -0.77625,2.18362 -2.54875,2.18362 -2.15375,0 -2.69125,-2.27787 -2.69125,-4.00637 0,-1.67813 0.26875,-4.48088 2.51625,-4.48088 1.5825,0 2.20125,0.69575 2.58125,2.26563 0.0325,0.10837 0.0787,0.17187 0.15875,0.17187 0.065,0 0.1275,-0.0791 0.1275,-0.21825 l 0,-2.4585 c 0,-0.0773 -0.0962,-0.20412 -0.1925,-0.20412 -0.885,-0.063 -1.82,-0.22075 -2.7075,-0.22075 -2.17,0 -3.99,1.86862 -3.99,4.89362 0,3.3715 1.94875,4.92325 4.165,4.92325 0.88625,0 1.9325,-0.22112 2.5325,-0.28412 0.1125,-0.0161 0.23875,-0.0781 0.23875,-0.20563 l 0.11125,-2.313 c 0,-0.14062 -0.0637,-0.19187 -0.14375,-0.19187"
         style="fill:#426889;fill-opacity:1;fill-rule:nonzero;stroke:none"
         id="path24"
         inkscape:connector-curvature="0" />
      <path
         d="m 423.82741,523.96369 c -1.55375,0 -1.8675,-1.94737 -1.8675,-3.13625 0,-1.1875 0.33125,-2.59475 1.7875,-2.59475 1.5675,0 1.8525,1.80375 1.8525,3.02338 0,1.14012 -0.31625,2.70762 -1.7725,2.70762 z m -0.0475,-6.3975 c -1.9475,0 -3.0575,1.6465 -3.0575,3.46625 0,1.82138 1.0925,3.5 3.0575,3.5 1.96375,0 3.0575,-1.67862 3.0575,-3.5 0,-1.81975 -1.09375,-3.46625 -3.0575,-3.46625"
         style="fill:#426889;fill-opacity:1;fill-rule:nonzero;stroke:none"
         id="path26"
         inkscape:connector-curvature="0" />
      <path
         d="m 439.75866,524.07344 -0.3475,-0.0941 c -0.28875,-0.0801 -0.5225,-0.3175 -0.5225,-0.7115 l 0,-3.185 c 0,-1.63087 -0.79375,-2.51662 -2.1075,-2.51662 -0.965,0 -1.86875,0.58537 -2.1375,1.42425 -0.285,-0.95063 -0.9825,-1.42425 -1.98125,-1.42425 -0.6,0 -1.315,0.1875 -1.85,0.90275 -0.0488,0.0773 -0.13,0.0455 -0.16,-0.017 l -0.25125,-0.55425 c -0.0488,-0.11088 -0.1275,-0.17425 -0.25625,-0.17425 l -1.7875,0 c -0.14375,0 -0.25375,0.0303 -0.25375,0.1255 0,0.0805 0.11,0.15862 0.25375,0.17575 l 0.645,0.0942 c 0.2875,0.0487 0.5425,0.30275 0.5425,0.69725 l 0,4.45162 c 0,0.394 -0.23875,0.63138 -0.5075,0.7115 l -0.33375,0.0941 c -0.14,0.0499 -0.25375,0.0968 -0.25375,0.1915 0,0.0781 0.11375,0.10988 0.25375,0.10988 l 2.835,0 c 0.12625,0 0.25375,-0.0317 0.25375,-0.1265 0,-0.0781 -0.1275,-0.14063 -0.25375,-0.17488 l -0.3325,-0.0941 c -0.285,-0.0801 -0.52375,-0.3175 -0.52375,-0.7115 l 0,-3.62787 c 0,-0.74375 0.99875,-1.23538 1.6025,-1.23538 0.9325,0 1.36,0.50538 1.36,1.42425 l 0,3.40588 c 0,0.475 -0.0775,0.69575 -0.19,0.808 -0.095,0.0953 -0.205,0.1275 -0.205,0.22225 0,0.0781 0.0625,0.10987 0.205,0.10987 l 2.18625,0 c 0.1425,0 0.2525,-0.0317 0.2525,-0.1265 0,-0.0781 -0.11,-0.125 -0.23625,-0.17487 l -0.35,-0.0941 c -0.28375,-0.0801 -0.5225,-0.3175 -0.5225,-0.7115 l 0,-3.48538 c 0,-0.74462 0.99875,-1.37787 1.615,-1.37787 0.92,0 1.34875,0.50537 1.34875,1.42425 l 0,3.40587 c 0,0.475 -0.0825,0.69575 -0.1925,0.808 -0.095,0.0953 -0.20375,0.1275 -0.20375,0.22225 0,0.0781 0.06,0.10988 0.20375,0.10988 l 2.185,0 c 0.1425,0 0.255,-0.0317 0.255,-0.1265 0,-0.0781 -0.1125,-0.125 -0.2375,-0.17488"
         style="fill:#426889;fill-opacity:1;fill-rule:nonzero;stroke:none"
         id="path28"
         inkscape:connector-curvature="0" />
      <path
         d="m 444.95241,523.96369 c -1.235,0 -1.615,-0.53962 -1.615,-1.63187 l 0,-2.72263 c 0,-0.1265 0.0475,-0.24025 0.11,-0.3345 0.365,-0.56837 0.99875,-0.90087 1.47375,-0.90087 0.93375,0 1.78875,0.664 1.78875,2.72362 0,1.77338 -0.68,2.86625 -1.7575,2.86625 z m 0.25125,-6.3975 c -0.5525,0 -1.2025,0.23625 -1.6925,0.77338 -0.0462,0.0514 -0.0937,0.0821 -0.12625,0.0821 -0.0475,0 -0.08,-0.0308 -0.1125,-0.0821 l -0.18875,-0.42575 c -0.0475,-0.11138 -0.1275,-0.19038 -0.25375,-0.19038 l -1.7875,0 c -0.145,0 -0.255,0.0303 -0.255,0.1255 0,0.0805 0.11,0.15863 0.255,0.17575 l 0.64875,0.0942 c 0.2825,0.0488 0.50625,0.31738 0.50625,0.71388 l 0,7.57076 c 0,0.458 -0.08,0.69482 -0.19,0.80566 -0.095,0.0967 -0.205,0.12744 -0.205,0.22119 0,0.0806 0.0625,0.11329 0.205,0.11329 l 2.3575,0 c 0.145,0 0.255,-0.0327 0.255,-0.12697 0,-0.0801 -0.11,-0.14257 -0.255,-0.17577 l -0.4875,-0.0952 c -0.2875,-0.0474 -0.54,-0.31446 -0.54,-0.71143 l 0,-2.0434 c 0,-0.0796 0.0475,-0.14262 0.14125,-0.10987 0.43,0.1415 0.92,0.25137 1.5375,0.25137 1.535,0 2.8975,-1.34662 2.8975,-3.435 0,-2.55125 -1.265,-3.53125 -2.71,-3.53125"
         style="fill:#426889;fill-opacity:1;fill-rule:nonzero;stroke:none"
         id="path30"
         inkscape:connector-curvature="0" />
      <path
         d="m 456.89366,524.07344 -0.445,-0.0941 c -0.28375,-0.0635 -0.53625,-0.30038 -0.53625,-0.69825 l 0,-4.32138 0.0625,-1.04587 c 0,-0.127 -0.08,-0.19038 -0.20625,-0.19038 l -1.855,0 c -0.14,0 -0.24875,0.0303 -0.24875,0.1255 0,0.0805 0.10875,0.12688 0.24875,0.17575 l 0.335,0.0942 c 0.28375,0.0791 0.52375,0.31738 0.52375,0.71388 l 0,3.62687 c 0,0.74463 -1.0775,1.23538 -1.7275,1.23538 -0.9175,0 -1.47375,-0.50925 -1.47375,-1.42725 l 0,-3.27738 c 0,-0.63375 0.08,-0.82275 0.18875,-0.934 0.0962,-0.0937 0.2075,-0.127 0.2075,-0.22312 0,-0.0796 -0.0637,-0.10988 -0.2075,-0.10988 l -2.18375,0 c -0.14125,0 -0.2525,0.0303 -0.2525,0.1255 0,0.0805 0.11125,0.12688 0.2525,0.17575 l 0.3325,0.0942 c 0.285,0.0791 0.525,0.31738 0.525,0.71388 l 0,3.1835 c 0,1.62987 0.915,2.51612 2.23125,2.51612 0.6025,0 1.43875,-0.18937 1.97875,-0.90087 0.0475,-0.0805 0.12875,-0.0488 0.15875,0.0146 l 0.2525,0.55525 c 0.0475,0.10987 0.11125,0.17337 0.25625,0.17337 l 1.5975,0 c 0.1425,0 0.255,-0.0317 0.255,-0.1265 0,-0.0781 -0.1275,-0.14062 -0.27,-0.17487"
         style="fill:#426889;fill-opacity:1;fill-rule:nonzero;stroke:none"
         id="path32"
         inkscape:connector-curvature="0" />
      <path
         d="m 462.67241,523.77419 c -0.0325,-0.0645 -0.10875,-0.0645 -0.1575,-0.0171 -0.175,0.10988 -0.585,0.23925 -0.91875,0.23925 -0.83875,0 -0.9825,-0.55512 -0.9825,-1.269 l 0,-4.24462 1.8225,0.0317 c 0.0787,0 0.14375,-0.0317 0.14375,-0.1235 l 0,-0.542 c 0,-0.0952 -0.0488,-0.1255 -0.16,-0.1255 l -1.80625,0 0,-2.09138 c 0,-0.13912 -0.08,-0.189 -0.14375,-0.189 -0.0762,0 -0.12375,0.0645 -0.15625,0.14263 l -0.745,1.7725 c -0.0962,0.24075 -0.2675,0.36525 -0.42625,0.36525 l -0.92,0 c -0.095,0 -0.1575,0.0634 -0.1575,0.16012 l 0,0.456 c 0,0.0821 0.08,0.14313 0.1575,0.14313 l 1.25,0 0,4.54687 c 0,1.04388 0.6675,1.44038 1.95,1.44038 0.45875,0 1.02875,-0.15863 1.29875,-0.36225 0.0463,-0.0343 0.0637,-0.065 0.0325,-0.12838 l -0.0813,-0.20512"
         style="fill:#426889;fill-opacity:1;fill-rule:nonzero;stroke:none"
         id="path34"
         inkscape:connector-curvature="0" />
      <path
         d="m 467.61241,524.07344 -0.64625,-0.0941 c -0.28625,-0.0489 -0.5225,-0.3175 -0.5225,-0.7115 l 0,-4.30813 0.06,-1.04587 c 0,-0.127 -0.0937,-0.19038 -0.2175,-0.19038 l -2.045,0 c -0.14125,0 -0.25375,0.0303 -0.25375,0.1255 0,0.0951 0.1275,0.15863 0.25375,0.17575 l 0.53875,0.0942 c 0.3,0.0488 0.52375,0.30275 0.52375,0.69725 l 0,4.45163 c 0,0.394 -0.22375,0.648 -0.52375,0.7115 l -0.49,0.0941 c -0.12875,0.0343 -0.25375,0.0968 -0.25375,0.1915 0,0.0781 0.125,0.10987 0.25375,0.10987 l 3.3225,0 c 0.12875,0 0.255,-0.0317 0.255,-0.10987 0,-0.0947 -0.12625,-0.17438 -0.255,-0.1915"
         style="fill:#426889;fill-opacity:1;fill-rule:nonzero;stroke:none"
         id="path36"
         inkscape:connector-curvature="0" />
      <path
         d="m 464.95366,515.33332 c 0,0.36475 0.29875,0.63375 0.665,0.63375 0.45875,0 0.9025,-0.397 0.9025,-0.85738 0,-0.3785 -0.3,-0.63487 -0.6825,-0.63487 -0.4425,0 -0.885,0.38237 -0.885,0.8585"
         style="fill:#426889;fill-opacity:1;fill-rule:nonzero;stroke:none"
         id="path38"
         inkscape:connector-curvature="0" />
      <path
         d="m 476.43616,524.07344 -0.33375,-0.0941 c -0.285,-0.0801 -0.5225,-0.3175 -0.5225,-0.7115 l 0,-3.185 c 0,-1.63088 -0.91875,-2.51663 -2.235,-2.51663 -0.59875,0 -1.44,0.1875 -1.9775,0.90275 -0.0463,0.0773 -0.1275,0.0455 -0.15875,-0.017 l -0.25375,-0.55425 c -0.0475,-0.11087 -0.11,-0.17425 -0.2525,-0.17425 l -1.79125,0 c -0.14125,0 -0.25125,0.0303 -0.25125,0.1255 0,0.0805 0.11,0.15863 0.25125,0.17575 l 0.65125,0.0942 c 0.285,0.0488 0.53875,0.30275 0.53875,0.69725 l 0,4.45163 c 0,0.394 -0.2225,0.63137 -0.5075,0.7115 l -0.33375,0.0941 c -0.14125,0.0499 -0.2525,0.0968 -0.2525,0.1915 0,0.0781 0.11125,0.10987 0.2525,0.10987 l 2.835,0 c 0.1425,0 0.25625,-0.0317 0.25625,-0.1265 0,-0.0781 -0.11375,-0.125 -0.25625,-0.17487 l -0.3325,-0.0941 c -0.285,-0.0801 -0.5225,-0.3175 -0.5225,-0.7115 l 0,-3.62788 c 0,-0.74375 1.12625,-1.23537 1.72625,-1.23537 0.91875,0 1.4725,0.50537 1.4725,1.42425 l 0,3.28037 c 0,0.63075 -0.0762,0.82125 -0.19,0.9335 -0.095,0.0952 -0.205,0.1275 -0.205,0.22225 0,0.0781 0.0625,0.10988 0.205,0.10988 l 2.1875,0 c 0.14125,0 0.25125,-0.0317 0.25125,-0.1265 0,-0.0781 -0.11,-0.125 -0.25125,-0.17488"
         style="fill:#426889;fill-opacity:1;fill-rule:nonzero;stroke:none"
         id="path40"
         inkscape:connector-curvature="0" />
      <path
         d="m 481.05866,521.72969 c -1.22125,0 -1.80625,-0.80712 -1.80625,-1.979 0,-0.98137 0.55375,-1.56825 1.55125,-1.56825 1.21875,0 1.78875,0.7275 1.78875,1.915 0,0.96825 -0.52125,1.63225 -1.53375,1.63225 z m 0.64875,2.64513 c 1.32875,0 1.82125,0.30075 1.82125,1.1245 0,1.12153 -1.37875,1.33198 -2.23375,1.33198 -0.92,0 -2.3575,-0.33348 -2.3575,-1.44336 0,-0.31687 0.10875,-0.83737 0.48875,-0.96537 0.30125,0 1.4725,-0.0477 2.28125,-0.0477 z m 3.23,-6.65138 -2.6275,0.10988 c -0.4125,-0.17338 -0.87,-0.26713 -1.37875,-0.26713 -1.5825,0 -2.83375,0.93363 -2.83375,2.35688 0,0.95212 0.5525,1.69687 1.3775,2.06062 0.0637,0.0326 0.0937,0.0635 0.0937,0.11075 0,0.0465 -0.03,0.0781 -0.10875,0.10988 -0.41375,0.17587 -0.72875,0.61775 -0.72875,1.14012 0,0.271 0.14125,0.57138 0.37875,0.76325 -0.6325,0.34763 -1.045,0.98 -1.045,1.67725 0,1.44041 1.36125,1.94676 2.5975,1.94676 1.55125,0 3.7525,-0.56885 3.7525,-2.48638 0,-1.50538 -0.965,-1.86913 -2.36125,-1.86913 -0.72625,0 -1.5825,0.065 -1.86625,0.065 -0.4775,0 -0.66625,-0.25537 -0.66625,-0.53862 0,-0.38088 0.4125,-0.61763 0.95,-0.61763 l 0.46,0 c 1.5825,0 2.81875,-0.95075 2.81875,-2.36187 0,-0.58488 -0.175,-1.07663 -0.53625,-1.47113 l 1.72375,-0.0474 c 0.10875,0 0.1725,-0.0479 0.1725,-0.15775 l 0,-0.39787 c 0,-0.11088 -0.0637,-0.1255 -0.1725,-0.1255"
         style="fill:#426889;fill-opacity:1;fill-rule:nonzero;stroke:none"
         id="path42"
         inkscape:connector-curvature="0" />
      <path
         d="m 414.11741,501.21407 c 0,-2.24513 0.29625,-4.95988 2.65625,-4.95988 2.65875,0 2.83375,3.30075 2.83375,5.46825 0,2.247 -0.2925,4.96338 -2.65625,4.96338 -2.655,0 -2.83375,-3.30275 -2.83375,-5.47175 z m 8.00875,8.20612 -0.2725,-0.39312 c -0.0588,-0.0576 -0.11625,-0.0576 -0.195,0 -0.37125,0.294 -1.01375,0.48837 -1.62,0.48837 -1.25,0 -1.9925,-0.8975 -2.1325,-2.08887 2.87375,-0.52838 4.085,-3.16263 4.085,-6.01663 0,-3.28025 -1.38625,-5.99562 -5.0975,-5.99562 -3.6525,0 -5.1575,2.92925 -5.1575,6.11275 0,3.00787 1.15125,5.52837 4.18125,5.9385 0.2325,1.75687 1.7375,3.02887 3.67,3.02887 0.97375,0 1.91625,-0.41412 2.5,-0.9205 0.0387,-0.039 0.08,-0.0966 0.0387,-0.15375"
         style="fill:#881211;fill-opacity:1;fill-rule:nonzero;stroke:none"
         id="path44"
         inkscape:connector-curvature="0" />
      <path
         d="m 429.64616,506.68582 0.21375,0.42962 c 0.0588,0.13675 0.155,0.2125 0.3125,0.2125 l 2.6775,0 c 0.175,0 0.31125,-0.0563 0.31125,-0.17337 0,-0.12113 -0.155,-0.17825 -0.31125,-0.21488 l -0.60625,-0.12112 c -0.3725,-0.0756 -0.64375,-0.36863 -0.64375,-0.85588 l 0,-5.3145 0.0775,-1.289 c 0,-0.15387 -0.11625,-0.2335 -0.27375,-0.2335 l -2.7725,0 c -0.17625,0 -0.31375,0.0581 -0.31375,0.17488 0,0.0981 0.15625,0.17625 0.31375,0.21487 l 0.40875,0.11763 c 0.3525,0.0976 0.60625,0.39112 0.60625,0.87937 l 0,4.41413 c 0,0.917 -1.07375,1.52337 -1.82,1.52337 -0.875,0 -1.325,-0.58587 -1.325,-1.71925 l 0,-4.17912 c 0,-0.585 0.0987,-0.86038 0.23375,-0.99663 0.11875,-0.11675 0.25375,-0.15625 0.25375,-0.2735 0,-0.0976 -0.0763,-0.15575 -0.25375,-0.15575 l -3.28125,0 c -0.175,0 -0.31125,0.0581 -0.31125,0.17488 0,0.0981 0.13625,0.15725 0.29,0.21487 l 0.43125,0.11763 c 0.3525,0.0976 0.645,0.39112 0.645,0.87937 l 0,3.90625 c 0,2.01175 1.15375,3.1055 2.77375,3.1055 0.82125,0 1.66,-0.2525 2.16875,-0.85937 0.0775,-0.0791 0.155,-0.0586 0.195,0.021"
         style="fill:#881211;fill-opacity:1;fill-rule:nonzero;stroke:none"
         id="path46"
         inkscape:connector-curvature="0" />
      <path
         d="m 439.07741,505.10332 c 0,0.70162 -0.68375,1.5615 -1.7975,1.5615 -0.78,0 -1.20875,-0.44925 -1.20875,-1.46388 0,-0.647 0.39,-1.03712 0.995,-1.2515 l 1.7975,-0.6245 c 0.13625,-0.0595 0.21375,0 0.21375,0.15575 l 0,1.62263 z m -1.385,-6.17338 c -0.84,0 -1.77875,0.17525 -2.6,0.23488 -0.1175,0 -0.195,0.0776 -0.195,0.19437 l 0.02,2.40325 c 0,0.0776 0.0987,0.11675 0.155,0.11675 0.06,0 0.1575,-0.0391 0.17625,-0.0981 0.31375,-1.42537 0.92,-2.05037 2.40375,-2.05037 0.7025,0 1.425,0.332 1.425,1.27 l 0,0.70275 c 0,0.58537 -0.46875,0.82025 -1.035,0.996 -0.91625,0.273 -1.7775,0.41062 -2.49875,0.72225 -0.9775,0.43162 -1.3475,1.27187 -1.3475,1.99162 0,1.38725 0.975,2.11088 2.5975,2.11088 0.93625,0 1.44375,-0.2525 2.12625,-0.72363 0.08,-0.0576 0.12,-0.0976 0.235,-0.0976 0.0787,0 0.0975,0.04 0.1775,0.13763 l 0.15625,0.27487 c 0.0787,0.11725 0.155,0.2125 0.33375,0.2125 l 2.41875,0 c 0.17625,0 0.3125,-0.0562 0.3125,-0.17337 0,-0.12113 -0.13625,-0.17825 -0.3125,-0.21488 l -0.58625,-0.12111 c -0.35125,-0.0756 -0.62375,-0.38813 -0.62375,-0.875 l 0,-4.1035 c 0,-2.24613 -1.25125,-2.91013 -3.33875,-2.91013"
         style="fill:#881211;fill-opacity:1;fill-rule:nonzero;stroke:none"
         id="path48"
         inkscape:connector-curvature="0" />
      <path
         d="m 452.77116,507.32794 c 0.17375,0 0.31,-0.0563 0.31,-0.17337 0,-0.0991 -0.13625,-0.15625 -0.29,-0.21488 l -0.4325,-0.12112 c -0.35,-0.0951 -0.64625,-0.38813 -0.64625,-0.875 l 0,-3.90813 c 0,-2.01125 -1.15125,-3.1055 -2.77125,-3.1055 -0.82125,0 -1.66125,0.25388 -2.16625,0.85888 -0.0788,0.0786 -0.1575,0.0586 -0.19625,-0.0185 l -0.21625,-0.43025 c -0.0588,-0.13475 -0.15625,-0.21438 -0.31,-0.21438 l -2.875,0 c -0.175,0 -0.31,0.0581 -0.31,0.17488 0,0.11762 0.155,0.19625 0.31,0.21487 l 0.8025,0.11763 c 0.3725,0.0581 0.64375,0.37112 0.64375,0.86087 l 0,5.44963 c 0,0.48687 -0.27125,0.77987 -0.625,0.875 l -0.41,0.12112 c -0.17375,0.0586 -0.3125,0.11575 -0.3125,0.23438 0,0.0976 0.13875,0.15387 0.3125,0.15387 l 4.005,0 c 0.17625,0 0.3125,-0.0563 0.3125,-0.17337 0,-0.0991 -0.1575,-0.17825 -0.3125,-0.21488 l -0.41,-0.12112 c -0.35375,-0.0951 -0.605,-0.38813 -0.605,-0.875 l 0,-4.4165 c 0,-0.917 1.07375,-1.52288 1.8175,-1.52288 0.8775,0 1.32625,0.58638 1.32625,1.71825 l 0,4.18063 c 0,0.58687 -0.0975,0.85937 -0.235,0.99512 -0.11625,0.11813 -0.25375,0.15725 -0.25375,0.27588 0,0.0976 0.0788,0.15387 0.25375,0.15387 l 3.28375,0"
         style="fill:#881211;fill-opacity:1;fill-rule:nonzero;stroke:none"
         id="path50"
         inkscape:connector-curvature="0" />
      <path
         d="m 459.70616,506.80057 -0.1375,-0.37013 c -0.0412,-0.0791 -0.1175,-0.0591 -0.195,-0.02 -0.23375,0.13625 -0.70375,0.3325 -1.11375,0.3325 -1.03375,0 -1.19,-0.6045 -1.19,-1.48487 l 0,-5.13775 2.24375,0.0401 c 0.0987,0 0.1775,-0.0401 0.1775,-0.15625 l 0,-0.72275 c 0,-0.11663 -0.0588,-0.15575 -0.195,-0.15575 l -2.22625,0 0,-2.61813 c 0,-0.17575 -0.13875,-0.25337 -0.2575,-0.25337 -0.11375,0 -0.2325,0.0776 -0.29,0.19525 l -1.1325,2.22712 c -0.17625,0.3505 -0.3725,0.44913 -0.56625,0.44913 l -1.25125,0 c -0.1175,0 -0.1975,0.0796 -0.1975,0.19537 l 0,0.6245 c 0,0.0981 0.1,0.17475 0.1975,0.17475 l 1.54375,0 0,5.54738 c 0,1.29012 1.015,1.77837 2.59875,1.77837 0.8375,0 1.5225,-0.19387 1.95125,-0.48825 0.0775,-0.0391 0.0775,-0.0791 0.04,-0.15725"
         style="fill:#881211;fill-opacity:1;fill-rule:nonzero;stroke:none"
         id="path52"
         inkscape:connector-curvature="0" />
      <path
         d="m 460.60116,499.51544 0.42875,0.11763 c 0.355,0.0976 0.6475,0.39112 0.6475,0.87937 l 0,3.90625 c 0,2.01175 1.15,3.1055 2.77375,3.1055 0.82,0 1.66125,-0.2525 2.16875,-0.85937 0.0775,-0.0791 0.155,-0.0586 0.1925,0.021 l 0.21625,0.42962 c 0.0575,0.13675 0.15625,0.2125 0.31125,0.2125 l 2.67625,0 c 0.17625,0 0.31125,-0.0563 0.31125,-0.17337 0,-0.12113 -0.15375,-0.17825 -0.31125,-0.21488 l -0.60375,-0.12112 c -0.3725,-0.0756 -0.64625,-0.36863 -0.64625,-0.85588 l 0,-5.3145 0.0775,-1.289 c 0,-0.15387 -0.11625,-0.2335 -0.2725,-0.2335 l -2.7725,0 c -0.17625,0 -0.3125,0.0581 -0.3125,0.17488 0,0.0981 0.155,0.17625 0.3125,0.21487 l 0.4075,0.11763 c 0.3525,0.0976 0.60625,0.39112 0.60625,0.87937 l 0,4.41413 c 0,0.917 -1.07375,1.52337 -1.815,1.52337 -0.87875,0 -1.32875,-0.58587 -1.32875,-1.71925 l 0,-4.17912 c 0,-0.585 0.0975,-0.86038 0.23125,-0.99663 0.12,-0.11675 0.25625,-0.15625 0.25625,-0.2735 0,-0.0976 -0.0775,-0.15575 -0.25625,-0.15575 l -3.27875,0 c -0.17375,0 -0.3125,0.0581 -0.3125,0.17488 0,0.0981 0.13875,0.15725 0.2925,0.21487"
         style="fill:#881211;fill-opacity:1;fill-rule:nonzero;stroke:none"
         id="path54"
         inkscape:connector-curvature="0" />
      <path
         d="m 485.60366,506.93969 -0.43125,-0.12112 c -0.35,-0.0951 -0.64375,-0.38813 -0.64375,-0.875 l 0,-4.27875 c 0,-1.50438 -0.8975,-2.73488 -2.8125,-2.73488 -1.17125,0 -2.09,0.54688 -2.56125,1.32863 -0.4275,-0.87888 -1.2475,-1.32863 -2.48,-1.32863 -0.81875,0 -1.56125,0.19575 -2.16625,0.87938 -0.0775,0.0776 -0.155,0.0581 -0.1975,-0.0205 l -0.21375,-0.44875 c -0.0575,-0.13475 -0.15375,-0.21438 -0.31125,-0.21438 l -2.75375,0 c -0.175,0 -0.31375,0.0581 -0.31375,0.17488 0,0.0981 0.13875,0.19625 0.31375,0.21487 l 0.8,0.11763 c 0.3525,0.0581 0.665,0.37112 0.665,0.86087 l 0,5.44963 c 0,0.48687 -0.2925,0.77987 -0.625,0.875 l -0.41125,0.12112 c -0.17625,0.0586 -0.31125,0.11575 -0.31125,0.23438 0,0.0976 0.135,0.15387 0.31125,0.15387 l 4.00375,0 c 0.1575,0 0.31375,-0.0563 0.31375,-0.17337 0,-0.0991 -0.15625,-0.17825 -0.31375,-0.21488 l -0.41,-0.12112 c -0.35125,-0.0951 -0.6025,-0.38813 -0.6025,-0.875 l 0,-4.4545 c 0,-0.917 0.875,-1.5225 1.62,-1.5225 1.15375,0 1.4625,0.624 1.4625,1.75587 l 0,4.18063 c 0,0.58687 -0.0975,0.85937 -0.23375,0.99512 -0.11625,0.11813 -0.25375,0.15725 -0.25375,0.27588 0,0.0976 0.0788,0.15387 0.25375,0.15387 l 3.20375,0 c 0.17375,0 0.31375,-0.0563 0.31375,-0.17337 0,-0.0991 -0.14,-0.15625 -0.29375,-0.21488 l -0.43,-0.12112 c -0.35125,-0.0951 -0.605,-0.38813 -0.605,-0.875 l 0,-4.4545 c 0,-0.917 0.8775,-1.5225 1.6225,-1.5225 1.15,0 1.4625,0.624 1.4625,1.75587 l 0,4.18063 c 0,0.58687 -0.0975,0.85937 -0.23375,0.99512 -0.115,0.11813 -0.255,0.15725 -0.255,0.27588 0,0.0976 0.0812,0.15387 0.255,0.15387 l 3.24,0 c 0.1775,0 0.315,-0.0563 0.315,-0.17337 0,-0.0991 -0.1375,-0.15625 -0.2925,-0.21488"
         style="fill:#881211;fill-opacity:1;fill-rule:nonzero;stroke:none"
         id="path56"
         inkscape:connector-curvature="0" />
      <path
         d="m 415.43366,490.15557 c 0,-0.0791 -0.11,-0.15825 -0.25375,-0.17388 l -0.65,-0.0953 c -0.2825,-0.0482 -0.52375,-0.31687 -0.52375,-0.71237 l -0.0137,-3.65813 0.0137,-3.6265 c 0,-0.397 0.24125,-0.6665 0.52375,-0.71337 l 0.65,-0.0937 c 0.14375,-0.0161 0.25375,-0.0952 0.25375,-0.19 0,-0.0796 -0.11,-0.11175 -0.25375,-0.11175 l -3.67375,0 c -0.1425,0 -0.2525,0.0321 -0.2525,0.12587 0,0.0806 0.11,0.15975 0.2525,0.17588 l 0.64875,0.0937 c 0.28375,0.0469 0.525,0.31637 0.525,0.71337 l 0.015,3.6265 -0.015,3.65813 c 0,0.3955 -0.24125,0.66412 -0.525,0.71237 l -0.64875,0.0953 c -0.1425,0.0156 -0.2525,0.0947 -0.2525,0.19 0,0.0785 0.11,0.11025 0.2525,0.11025 l 3.67375,0 c 0.14375,0 0.25375,-0.0318 0.25375,-0.12637"
         style="fill:#426889;fill-opacity:1;fill-rule:nonzero;stroke:none"
         id="path58"
         inkscape:connector-curvature="0" />
      <path
         d="m 416.35116,483.93194 0.64875,0.0951 c 0.28625,0.0469 0.53875,0.30138 0.53875,0.69688 l 0,4.45012 c 0,0.3955 -0.22125,0.63288 -0.5075,0.71238 l -0.33125,0.0952 c -0.1425,0.0479 -0.25375,0.0948 -0.25375,0.19 0,0.0785 0.11125,0.11025 0.25375,0.11025 l 2.835,0 c 0.1425,0 0.25375,-0.0317 0.25375,-0.12638 0,-0.0791 -0.11125,-0.126 -0.25375,-0.17387 l -0.3325,-0.0952 c -0.2875,-0.0795 -0.5225,-0.31688 -0.5225,-0.71238 l 0,-3.62737 c 0,-0.74375 1.125,-1.23438 1.72625,-1.23438 0.91875,0 1.47125,0.50675 1.47125,1.42525 l 0,3.27738 c 0,0.63475 -0.0762,0.82325 -0.18875,0.9355 -0.0937,0.0953 -0.20375,0.126 -0.20375,0.22125 0,0.0785 0.0613,0.11025 0.20375,0.11025 l 2.18625,0 c 0.1425,0 0.2525,-0.0317 0.2525,-0.12638 0,-0.0791 -0.11,-0.126 -0.2525,-0.17387 l -0.33375,-0.0952 c -0.285,-0.0795 -0.5225,-0.31688 -0.5225,-0.71238 l 0,-3.18412 c 0,-1.63075 -0.91875,-2.5165 -2.23125,-2.5165 -0.60375,0 -1.44375,0.188 -1.98125,0.90275 -0.045,0.0781 -0.12625,0.0469 -0.15875,-0.017 l -0.2525,-0.55425 c -0.0488,-0.11138 -0.11125,-0.17475 -0.2525,-0.17475 l -1.79125,0 c -0.1425,0 -0.2525,0.0312 -0.2525,0.12687 0,0.0791 0.11,0.15875 0.2525,0.17488"
         style="fill:#426889;fill-opacity:1;fill-rule:nonzero;stroke:none"
         id="path60"
         inkscape:connector-curvature="0" />
      <path
         d="m 425.49116,489.91819 c 0.015,0.11138 0.0925,0.17538 0.205,0.20613 0.40875,0.10987 1.36,0.31737 2.2325,0.31737 1.345,0 2.455,-0.41212 2.455,-2.01125 0,-2.314 -3.99125,-2.07575 -3.99125,-3.4365 0,-0.63475 0.5375,-0.95125 1.23375,-0.95125 1.2375,0 1.82375,0.20663 2.2175,1.39413 0.0337,0.0791 0.065,0.143 0.1275,0.143 0.095,0 0.095,-0.12838 0.095,-0.18938 l -0.03,-1.56887 c 0,-0.0796 -0.065,-0.14363 -0.15875,-0.16013 0,0 -1.315,-0.188 -2.15625,-0.188 -1.61625,0 -2.19875,0.791 -2.19875,1.86763 0,2.28175 3.9425,1.80662 3.9425,3.46875 0,0.68062 -0.76125,1.02837 -1.3475,1.02837 -1.2975,0 -2.02625,-0.29987 -2.48625,-1.61387 -0.0175,-0.0951 -0.0787,-0.17575 -0.175,-0.17575 -0.10875,0 -0.12375,0.0953 -0.10875,0.1905 0.0288,0.22162 0.0625,0.57075 0.08,0.83937 0.0288,0.28563 0.0437,0.6025 0.0637,0.83975"
         style="fill:#426889;fill-opacity:1;fill-rule:nonzero;stroke:none"
         id="path62"
         inkscape:connector-curvature="0" />
      <path
         d="m 431.63616,484.39094 1.25,0 0,4.54588 c 0,1.04487 0.665,1.44087 1.9475,1.44087 0.46,0 1.03,-0.15875 1.30125,-0.36475 0.0463,-0.0312 0.0625,-0.0625 0.0312,-0.1265 l -0.0825,-0.2055 c -0.03,-0.063 -0.1075,-0.063 -0.15625,-0.0156 -0.175,0.11088 -0.585,0.23775 -0.92,0.23775 -0.8375,0 -0.98,-0.55512 -0.98,-1.268 l 0,-4.24412 1.82,0.0321 c 0.08,0 0.14375,-0.0321 0.14375,-0.1255 l 0,-0.5405 c 0,-0.0956 -0.0475,-0.12688 -0.15875,-0.12688 l -1.805,0 0,-2.08987 c 0,-0.14263 -0.08,-0.1885 -0.1425,-0.1885 -0.0787,0 -0.1275,0.0625 -0.15875,0.14062 l -0.74375,1.7735 c -0.0962,0.23963 -0.27,0.36425 -0.43,0.36425 l -0.91625,0 c -0.0962,0 -0.16,0.0634 -0.16,0.16013 l 0,0.459 c 0,0.0791 0.0813,0.14162 0.16,0.14162"
         style="fill:#426889;fill-opacity:1;fill-rule:nonzero;stroke:none"
         id="path64"
         inkscape:connector-curvature="0" />
      <path
         d="m 437.35366,483.93194 0.5375,0.0951 c 0.3,0.0469 0.52375,0.30138 0.52375,0.69688 l 0,4.45012 c 0,0.3955 -0.22375,0.64938 -0.52375,0.71238 l -0.4925,0.0952 c -0.125,0.0312 -0.2525,0.0948 -0.2525,0.19 0,0.0785 0.1275,0.11025 0.2525,0.11025 l 3.32625,0 c 0.1275,0 0.25375,-0.0317 0.25375,-0.11025 0,-0.0952 -0.12625,-0.17438 -0.25375,-0.19 l -0.6475,-0.0952 c -0.2875,-0.0483 -0.52375,-0.31688 -0.52375,-0.71238 l 0,-4.30912 0.0637,-1.04338 c 0,-0.128 -0.0962,-0.19137 -0.22125,-0.19137 l -2.0425,0 c -0.14375,0 -0.25625,0.0312 -0.25625,0.12687 0,0.0953 0.12875,0.15875 0.25625,0.17488"
         style="fill:#426889;fill-opacity:1;fill-rule:nonzero;stroke:none"
         id="path66"
         inkscape:connector-curvature="0" />
      <path
         d="m 438.72991,481.87432 c 0.46,0 0.90375,-0.3975 0.90375,-0.8555 0,-0.38238 -0.3,-0.63475 -0.68125,-0.63475 -0.44375,0 -0.88875,0.37987 -0.88875,0.8555 0,0.36512 0.3025,0.63475 0.66625,0.63475"
         style="fill:#426889;fill-opacity:1;fill-rule:nonzero;stroke:none"
         id="path68"
         inkscape:connector-curvature="0" />
      <path
         d="m 441.59616,484.39094 1.25125,0 0,4.54588 c 0,1.04487 0.66375,1.44087 1.94625,1.44087 0.45875,0 1.02875,-0.15875 1.3,-0.36475 0.0462,-0.0312 0.0637,-0.0625 0.0325,-0.1265 l -0.0813,-0.2055 c -0.0312,-0.063 -0.11,-0.063 -0.15625,-0.0156 -0.17625,0.11088 -0.5875,0.23775 -0.92,0.23775 -0.84,0 -0.98125,-0.55512 -0.98125,-1.268 l 0,-4.24412 1.82,0.0321 c 0.0812,0 0.145,-0.0321 0.145,-0.1255 l 0,-0.5405 c 0,-0.0956 -0.05,-0.12688 -0.16,-0.12688 l -1.805,0 0,-2.08987 c 0,-0.14263 -0.0775,-0.1885 -0.1425,-0.1885 -0.0788,0 -0.12625,0.0625 -0.15875,0.14062 l -0.74375,1.7735 c -0.095,0.23963 -0.26875,0.36425 -0.42875,0.36425 l -0.9175,0 c -0.095,0 -0.15875,0.0634 -0.15875,0.16013 l 0,0.459 c 0,0.0791 0.08,0.14162 0.15875,0.14162"
         style="fill:#426889;fill-opacity:1;fill-rule:nonzero;stroke:none"
         id="path70"
         inkscape:connector-curvature="0" />
      <path
         d="m 447.05866,483.93194 0.33,0.0951 c 0.2875,0.0791 0.525,0.316 0.525,0.71338 l 0,3.18262 c 0,1.62988 0.91875,2.51863 2.23125,2.51863 0.6025,0 1.4425,-0.1915 1.98125,-0.90338 0.0475,-0.0805 0.1275,-0.0479 0.15875,0.0146 l 0.25375,0.55525 c 0.0475,0.11075 0.11125,0.17375 0.255,0.17375 l 1.59625,0 c 0.1425,0 0.25375,-0.0317 0.25375,-0.12637 0,-0.0791 -0.12625,-0.14263 -0.26875,-0.17388 l -0.44375,-0.0952 c -0.285,-0.063 -0.54,-0.30025 -0.54,-0.69775 l 0,-4.32375 0.0663,-1.04337 c 0,-0.128 -0.0825,-0.19138 -0.2075,-0.19138 l -1.85375,0 c -0.1425,0 -0.25375,0.0312 -0.25375,0.12688 0,0.0791 0.11125,0.1285 0.25375,0.17487 l 0.3325,0.0951 c 0.2875,0.0791 0.525,0.316 0.525,0.71338 l 0,3.6255 c 0,0.74512 -1.07875,1.23687 -1.7275,1.23687 -0.91875,0 -1.47375,-0.50737 -1.47375,-1.42725 l 0,-3.27737 c 0,-0.63375 0.08,-0.82425 0.19125,-0.9345 0.095,-0.0942 0.20625,-0.1275 0.20625,-0.22175 0,-0.0805 -0.0637,-0.11175 -0.20625,-0.11175 l -2.185,0 c -0.14375,0 -0.255,0.0312 -0.255,0.12687 0,0.0791 0.11125,0.1285 0.255,0.17488"
         style="fill:#426889;fill-opacity:1;fill-rule:nonzero;stroke:none"
         id="path72"
         inkscape:connector-curvature="0" />
      <path
         d="m 455.40491,484.39094 1.25,0 0,4.54588 c 0,1.04487 0.66375,1.44087 1.9475,1.44087 0.4575,0 1.03,-0.15875 1.3,-0.36475 0.0437,-0.0312 0.0613,-0.0625 0.03,-0.1265 l -0.0788,-0.2055 c -0.03,-0.063 -0.11125,-0.063 -0.1575,-0.0156 -0.17625,0.11088 -0.58625,0.23775 -0.91875,0.23775 -0.84,0 -0.98125,-0.55512 -0.98125,-1.268 l 0,-4.24412 1.82,0.0321 c 0.08,0 0.14375,-0.0321 0.14375,-0.1255 l 0,-0.5405 c 0,-0.0956 -0.0475,-0.12688 -0.16,-0.12688 l -1.80375,0 0,-2.08987 c 0,-0.14263 -0.0787,-0.1885 -0.14375,-0.1885 -0.0788,0 -0.1275,0.0625 -0.15875,0.14062 l -0.745,1.7735 c -0.0937,0.23963 -0.26875,0.36425 -0.42625,0.36425 l -0.9175,0 c -0.0962,0 -0.15875,0.0634 -0.15875,0.16013 l 0,0.459 c 0,0.0791 0.0787,0.14162 0.15875,0.14162"
         style="fill:#426889;fill-opacity:1;fill-rule:nonzero;stroke:none"
         id="path74"
         inkscape:connector-curvature="0" />
      <path
         d="m 463.92491,484.01094 c 0.7125,0 1.37625,0.57038 1.37625,1.774 0,0.25388 -0.095,0.44388 -0.39625,0.52338 -0.1725,0.0625 -0.5375,0.0768 -0.83875,0.0768 l -0.47375,0 c -0.35125,0 -1.125,-0.0143 -1.125,-0.0143 -0.175,0 -0.255,-0.11125 -0.23875,-0.28563 0.15875,-1.25 0.7925,-2.07425 1.69625,-2.07425 z m -0.0488,6.43075 c 1.0775,0 1.98,-0.5865 2.40875,-1.3945 0.015,-0.0474 0.015,-0.0791 -0.0325,-0.1275 l -0.255,-0.20562 c -0.0463,-0.0312 -0.0962,-0.0146 -0.125,0.0494 -0.28625,0.4585 -1.03125,0.94825 -1.67875,0.94825 -0.88875,0 -1.9325,-0.61625 -2.01375,-2.46925 -0.0138,-0.17525 0.16,-0.31688 0.33375,-0.31688 l 3.65875,0 c 0.19,0 0.36375,-0.25387 0.36375,-0.47612 0,-2.121 -1.37625,-2.976 -2.61125,-2.976 -1.6,0 -2.97875,1.37687 -2.97875,3.45212 0,2.53225 1.49,3.51613 2.93,3.51613"
         style="fill:#426889;fill-opacity:1;fill-rule:nonzero;stroke:none"
         id="path76"
         inkscape:connector-curvature="0" />
      <path
         d="m 469.45991,493.58232 c 1.25625,0 1.835,-1.49275 2.09875,-2.63925 0.49,-2.09863 1.095,-5.583 1.095,-5.583 l 1.87625,0.0401 c 0.0662,0 0.13125,-0.0279 0.14375,-0.0928 l 0.1175,-0.47563 c 0.0138,-0.0664 -0.0512,-0.0914 -0.1175,-0.0914 l -1.89875,0 c 0,0 0.21,-1.14937 0.32875,-1.60987 0.11875,-0.55563 0.5275,-1.083 1.14875,-1.083 0.56625,0 0.685,0.58062 0.75,0.8585 0.015,0.0395 0.055,0.0786 0.13375,0.0786 0.0662,0 0.13,-0.0532 0.1575,-0.1055 0,0 0.32875,-0.62063 0.34375,-0.6465 0,-0.0269 0,-0.0533 -0.015,-0.0786 -0.0637,-0.22563 -0.5525,-0.56888 -1.39625,-0.56888 -1.18875,0 -1.88875,0.72513 -2.13875,1.82125 -0.0662,0.26375 -0.265,1.334 -0.265,1.334 l -0.68625,0 c -0.0775,0 -0.14375,0.0514 -0.17,0.13188 l -0.08,0.3565 c -0.0125,0.0786 0.0263,0.13125 0.10625,0.13125 l 0.7125,0 c 0,0 -0.6325,3.57675 -1.07,5.46337 -0.185,0.8165 -0.5525,2.11088 -1.33375,2.11088 -0.20875,0 -0.4725,-0.0659 -0.67,-0.38088 -0.0525,-0.0791 -0.15875,-0.12012 -0.27875,-0.0536 -0.0913,0.0674 -0.10625,0.17087 -0.0675,0.23675 0.30625,0.51512 0.74125,0.84575 1.175,0.84575"
         style="fill:#426889;fill-opacity:1;fill-rule:nonzero;stroke:none"
         id="path78"
         inkscape:connector-curvature="0" />
      <path
         d="m 475.70616,487.32744 c 0.22125,-0.99075 0.75,-2.16562 1.93625,-2.16562 1.26875,0 1.13625,1.504 0.89875,2.522 -0.2125,0.94825 -0.76625,2.25487 -1.93875,2.25487 -1.255,0 -1.13625,-1.622 -0.89625,-2.61125 z m 0.75,3.08638 c 1.58375,0 2.81125,-1.39888 3.1675,-2.9155 0.3425,-1.51763 -0.23875,-2.88963 -1.83375,-2.88963 -1.57125,0 -2.81125,1.372 -3.15625,2.88963 -0.3575,1.51662 0.22625,2.9155 1.8225,2.9155"
         style="fill:#426889;fill-opacity:1;fill-rule:nonzero;stroke:none"
         id="path80"
         inkscape:connector-curvature="0" />
      <path
         d="m 480.85116,485.65069 c 0.29,-0.29062 0.595,-0.48887 0.83125,-0.48887 0.27625,0 0.4075,0.1715 0.30375,0.59425 l -0.97625,4.26325 c -0.0137,0.0654 0,0.11862 0.0513,0.145 l 0.64625,0.2495 c 0.08,0.0279 0.15875,0 0.17125,-0.0917 l 0.345,-1.46338 c 0.4225,-1.8365 1.53,-3.3155 2.07125,-3.3155 0.22375,0 0.3825,0.15975 0.475,0.38338 0.0112,0.0405 0.0537,0.0541 0.105,0.0541 0.0662,0 0.12,-0.0541 0.14625,-0.10688 l 0.5012,-0.8965 c 0.04,-0.0791 0.04,-0.15825 0,-0.22513 -0.0662,-0.0917 -0.1975,-0.1435 -0.3825,-0.1435 -0.62125,0 -1.2925,0.42088 -1.795,1.081 -0.10625,0.1465 -0.25,0.34225 -0.35625,0.5015 -0.0538,0.0791 -0.1575,0.0532 -0.145,-0.0396 l 0.0913,-0.3955 c 0.16,-0.66112 -0.1175,-1.14737 -0.765,-1.14737 -0.54,0 -1.0425,0.2495 -1.55625,0.76362 -0.0925,0.0932 -0.10625,0.211 -0.0413,0.2915 0.0675,0.0791 0.1975,0.0791 0.27875,-0.0131"
         style="fill:#426889;fill-opacity:1;fill-rule:nonzero;stroke:none"
         id="path82"
         inkscape:connector-curvature="0" />
      <path
         d="m 302.35616,482.74244 2.935,-0.42975 c 0.64625,-0.0717 1.1475,-0.42962 1.1475,-0.85925 0,-0.3575 -0.50125,-0.57325 -1.1475,-0.57325 l -18.6125,0 c -0.645,0 -1.14625,0.21575 -1.14625,0.645 0,0.35788 0.50125,0.71575 1.14625,0.7875 l 2.93625,0.42975 c 1.2875,0.21538 2.35875,1.43263 2.35875,3.22163 l 0.0738,16.32475 -0.0738,16.46725 c 0,1.78712 -1.07125,3.00537 -2.35875,3.22025 l -2.93625,0.42725 c -0.645,0.0758 -1.14625,0.43212 -1.14625,0.86275 0,0.357 0.50125,0.57137 1.14625,0.57137 l 18.6125,0 c 0.64625,0 1.1475,-0.21437 1.1475,-0.6455 0,-0.3565 -0.50125,-0.71287 -1.1475,-0.78862 l -2.935,-0.42725 c -1.28875,-0.21488 -2.36125,-1.43313 -2.36125,-3.22025 l -0.0725,-16.46725 0.0725,-16.32475 c 0,-1.789 1.0725,-3.00625 2.36125,-3.22163"
         style="fill:#426889;fill-opacity:1;fill-rule:nonzero;stroke:none"
         id="path84"
         inkscape:connector-curvature="0" />
      <path
         d="m 322.33116,495.82644 c 0,-10.2915 1.34125,-22.731 12.1725,-22.731 12.16875,0 12.9775,15.1235 12.9775,25.05763 0,10.2915 -1.345,22.7305 -12.175,22.7305 -12.17,0 -12.975,-15.12263 -12.975,-25.05713 z m 35.44125,35.79589 c -0.27,-0.26611 -0.53875,-0.26611 -0.8975,0 -1.7,1.34375 -4.6525,2.2373 -7.4275,2.2373 -5.725,0 -9.12625,-4.11621 -9.75375,-9.57369 13.155,-2.417 18.70375,-14.49712 18.70375,-27.565 0,-15.03462 -6.35375,-27.47562 -23.3575,-27.47562 -16.7375,0 -23.62625,13.42487 -23.62625,28.01325 0,13.78275 5.27875,25.32562 19.15,27.2065 1.0775,8.05178 7.96625,13.87112 16.82625,13.87112 4.475,0 8.77,-1.87989 11.455,-4.20752 0.18,-0.1787 0.35875,-0.44824 0.18,-0.71435 l -1.2525,-1.79199"
         style="fill:#881211;fill-opacity:1;fill-rule:nonzero;stroke:none"
         id="path86"
         inkscape:connector-curvature="0" />
      <path
         d="m 397.75616,510.73607 c -0.2875,0 -0.78875,0.21337 -0.8575,0.6445 -1.6475,6.65775 -4.22625,10.0245 -11.31375,10.0245 -9.0925,0 -11.17,-10.8145 -11.17,-18.0435 0,-6.729 0.71625,-20.04588 10.0975,-20.04588 7.1575,0 10.0225,3.293 11.74,10.38138 0.14125,0.5005 0.50125,0.78662 0.85875,0.78662 0.2875,0 0.715,-0.35887 0.715,-1.0025 l 0,-11.38325 c 0,-0.35837 -0.4275,-0.92975 -0.85875,-0.92975 -4.01,-0.288 -8.0175,-1.00237 -12.59875,-1.00237 -10.7375,0 -18.6875,8.59075 -18.6875,22.123 0,15.105 8.45,22.26562 19.4725,22.26562 4.5125,0 9.02375,-1.00337 11.745,-1.28812 0.5,-0.0741 1.07125,-0.35888 1.07125,-0.93113 l 0.575,-10.74125 c 0,-0.6445 -0.43125,-0.85787 -0.78875,-0.85787"
         style="fill:#426889;fill-opacity:1;fill-rule:nonzero;stroke:none"
         id="path88"
         inkscape:connector-curvature="0" />
    </g>
  </g>
</svg>
